<svg width="800" height="800" viewBox="0 0 800 800" xmlns="http://www.w3.org/2000/svg" xmlns:xlink="http://www.w3.org/1999/xlink"><title>rs-logo-wth-type</title><defs><path d="M141.074 104.904l3.33-17.05c2.091-18.71 16.275-38.405 36.66-43.901 0 0 35.435-9.254 41.148-16.256 5.712-7.002 5.712-12.252 5.712-18.346 0-3.146-2.561-6.066-5.712-6.066L176 15.471c-28.482 6.475-58.515 26.433-66.194 76.302l-9.638 70.803C98.005 180.209 90.589 194 77 194c-13.59 0-22-5.5-22-23l-2-35-47-.329V159c0 36 21 77 68 77a55.03 55.03 0 0 0 6.732-.402c31.264-2.126 49.445-26.246 63.884-57.872l23.205-55.62c7.61-14.557 23.603-24.793 37.44-29.405l18.55-3.953c6.879-1.446 15.17-5.36 18.786-9.826 3.615-4.466 6.635-10.84 6.635-17.085 0-3.224-3.405-9.735-6.635-9.735l-43.056 11.06c-28.035 5.477-44.906 18.024-57.531 39.928l-.936 1.814z" id="a"/><filter x="-5.3%" y="-5.6%" width="110.7%" height="111.2%" filterUnits="objectBoundingBox" id="b"><feMorphology radius="10" in="SourceAlpha" result="shadowSpreadInner1"/><feOffset dy="6" in="shadowSpreadInner1" result="shadowOffsetInner1"/><feComposite in="shadowOffsetInner1" in2="SourceAlpha" operator="arithmetic" k2="-1" k3="1" result="shadowInnerInner1"/><feColorMatrix values="0 0 0 0 0 0 0 0 0 0 0 0 0 0 0 0 0 0 0.25 0" in="shadowInnerInner1"/></filter><path d="M6 165c0 51.084 46.74 84 92 84s66.885-28.973 77.514-54.727c10.629-25.753 22.59-52.773 41.004-52.773l31.328.129a24.254 24.254 0 0 0 17.198-7.115 24.178 24.178 0 0 0 7.119-17.157c0-3.459-2.817-6.269-6.282-6.269h-49.363c-37.24 0-51.893 17.21-61.94 44.107C146.126 177.822 129.541 204.5 98 204.5c-31.541 0-45-23.074-45-69.69-13-.296-47 .19-47 .19v30z" id="c"/><filter x="-4.9%" y="-9.4%" width="109.8%" height="118.9%" filterUnits="objectBoundingBox" id="d"><feMorphology radius="10" in="SourceAlpha" result="shadowSpreadInner1"/><feOffset dy="6" in="shadowSpreadInner1" result="shadowOffsetInner1"/><feComposite in="shadowOffsetInner1" in2="SourceAlpha" operator="arithmetic" k2="-1" k3="1" result="shadowInnerInner1"/><feColorMatrix values="0 0 0 0 0 0 0 0 0 0 0 0 0 0 0 0 0 0 0.25 0" in="shadowInnerInner1"/></filter><path d="M141.074 104.904l3.33-17.05c2.091-18.71 16.275-38.405 36.66-43.901 0 0 35.435-9.254 41.148-16.256 5.712-7.002 5.712-12.252 5.712-18.346 0-3.146-2.561-6.066-5.712-6.066L176 15.471c-28.482 6.475-58.515 26.433-66.194 76.302l-9.638 70.803C98.005 180.209 90.589 194 77 194c-13.59 0-22-5.5-22-23l-2-35-47-.329V159c0 36 21 77 68 77a55.03 55.03 0 0 0 6.732-.402c31.264-2.126 49.445-26.246 63.884-57.872l23.205-55.62c7.61-14.557 23.603-24.793 37.44-29.405l18.55-3.953c6.879-1.446 15.17-5.36 18.786-9.826 3.615-4.466 6.635-10.84 6.635-17.085 0-3.224-3.405-9.735-6.635-9.735l-43.056 11.06c-28.035 5.477-44.906 18.024-57.531 39.928l-.936 1.814z" id="e"/><filter x="-5.3%" y="-5.6%" width="110.7%" height="111.2%" filterUnits="objectBoundingBox" id="f"><feMorphology radius="10" in="SourceAlpha" result="shadowSpreadInner1"/><feOffset dy="6" in="shadowSpreadInner1" result="shadowOffsetInner1"/><feComposite in="shadowOffsetInner1" in2="SourceAlpha" operator="arithmetic" k2="-1" k3="1" result="shadowInnerInner1"/><feColorMatrix values="0 0 0 0 0 0 0 0 0 0 0 0 0 0 0 0 0 0 0.25 0" in="shadowInnerInner1"/></filter><path d="M6 165c0 51.084 46.74 84 92 84s66.885-28.973 77.514-54.727c10.629-25.753 22.59-52.773 41.004-52.773l31.328.129a24.254 24.254 0 0 0 17.198-7.115 24.178 24.178 0 0 0 7.119-17.157c0-3.459-2.817-6.269-6.282-6.269h-49.363c-37.24 0-51.893 17.21-61.94 44.107C146.126 177.822 129.541 204.5 98 204.5c-31.541 0-45-23.074-45-69.69-13-.296-47 .19-47 .19v30z" id="g"/><filter x="-4.9%" y="-9.4%" width="109.8%" height="118.9%" filterUnits="objectBoundingBox" id="h"><feMorphology radius="10" in="SourceAlpha" result="shadowSpreadInner1"/><feOffset dy="6" in="shadowSpreadInner1" result="shadowOffsetInner1"/><feComposite in="shadowOffsetInner1" in2="SourceAlpha" operator="arithmetic" k2="-1" k3="1" result="shadowInnerInner1"/><feColorMatrix values="0 0 0 0 0 0 0 0 0 0 0 0 0 0 0 0 0 0 0.25 0" in="shadowInnerInner1"/></filter><path d="M85.371 102.978s-27.08 7.268-40.621 7.268c-13.54 0-40.123-7.268-40.123-7.268a4.175 4.175 0 0 1-4.175-4.175V4.313A4.175 4.175 0 0 1 4.627.138h80.744a4.175 4.175 0 0 1 4.175 4.175v94.49a4.173 4.173 0 0 1-4.175 4.175z" id="i"/><path d="M111.85 177.15s-24.116 4.848-36.174 4.848c-11.843 0-35.528-4.848-35.528-4.848-22.132 0-40.073-13.093-40.073-35.225V76.324C.075 34.432 34.035.472 75.927.472c42.035 0 75.995 33.96 75.995 75.852v65.601c.001 22.132-17.941 35.225-40.072 35.225z" id="k"/></defs><g fill="none" fill-rule="evenodd"><g fill-rule="nonzero"><g transform="matrix(-1 0 0 1 404 276)"><use fill="#00D8FE" fill-rule="evenodd" xlink:href="#a"/><use fill="#000" filter="url(#b)" xlink:href="#a"/><use stroke="#053949" stroke-width="10" xlink:href="#a"/></g><g transform="matrix(-1 0 0 1 404 276)"><use fill="#00D8FE" fill-rule="evenodd" xlink:href="#c"/><use fill="#000" filter="url(#d)" xlink:href="#c"/><use stroke="#053949" stroke-width="10" xlink:href="#c"/></g></g><g fill-rule="nonzero"><g transform="translate(396 276)"><use fill="#00D8FE" fill-rule="evenodd" xlink:href="#e"/><use fill="#000" filter="url(#f)" xlink:href="#e"/><use stroke="#053949" stroke-width="10" xlink:href="#e"/></g><g transform="translate(396 276)"><use fill="#00D8FE" fill-rule="evenodd" xlink:href="#g"/><use fill="#000" filter="url(#h)" xlink:href="#g"/><use stroke="#053949" stroke-width="10" xlink:href="#g"/></g></g><g transform="translate(355 324)"><mask id="j" fill="#fff"><use xlink:href="#i"/></mask><g fill-rule="nonzero"><use fill="#00D8FE" fill-rule="evenodd" xlink:href="#i"/><path stroke="#043849" stroke-width="12" d="M86.313 108.935c5.18-.476 9.235-4.831 9.233-10.135V4.313c0-5.62-4.555-10.175-10.175-10.175H4.627c-5.62 0-10.175 4.555-10.175 10.175v94.49c0 5.296 4.046 9.647 9.216 10.13.182.05.382.102.597.159a345.67 345.67 0 0 0 14.068 3.383c3.16.688 6.229 1.305 9.158 1.832 6.911 1.244 12.738 1.94 17.259 1.94 4.568 0 10.516-.71 17.606-1.979 2.893-.518 5.922-1.12 9.042-1.79a361.489 361.489 0 0 0 14.915-3.543z"/></g><path fill-opacity=".25" fill="#000" mask="url(#j)" d="M0 30h22l-12 84H0z"/></g><g transform="translate(329 345)" fill-rule="nonzero"><ellipse stroke="#063A49" stroke-width="12" fill="#FFF" cx="25.455" cy="25.327" rx="25.043" ry="24.996"/><circle fill="#053949" cx="25.455" cy="25.348" r="7.837"/></g><g transform="translate(419 345)" fill-rule="nonzero"><ellipse stroke="#063A49" stroke-width="12" fill="#FFF" cx="25.455" cy="25.327" rx="25.043" ry="24.996"/><circle fill="#053949" cx="25.455" cy="25.348" r="7.837"/></g><g transform="translate(324 172)"><mask id="l" fill="#fff"><use xlink:href="#k"/></mask><g fill-rule="nonzero"><use fill="#00D8FE" fill-rule="evenodd" xlink:href="#k"/><path stroke="#043849" stroke-width="12" d="M112.452 183.148c26.036-.25 45.471-16.624 45.47-41.223V76.324c0-45.23-36.67-81.852-81.995-81.852-45.206 0-81.852 36.646-81.852 81.852v65.601c0 24.596 19.43 40.97 45.46 41.222l.49.098a400.748 400.748 0 0 0 12.476 2.25c2.723.446 5.366.847 7.89 1.191 6.167.842 11.337 1.312 15.285 1.312 4.007 0 9.263-.47 15.534-1.31a307.85 307.85 0 0 0 8.027-1.19 414.587 414.587 0 0 0 13.215-2.35z"/></g><path d="M20.973 139.925V54.324c0-38.37 28.495-70.066 65.475-75.128a76.401 76.401 0 0 0-10.378-.725h-.143C34.035-21.529.074 12.431.074 54.323v85.601c0 22.132 17.941 40.073 40.073 40.073h20.898c-22.131.001-40.072-17.94-40.072-40.072z" fill-opacity=".25" fill="#000" fill-rule="nonzero" mask="url(#l)"/><circle fill-opacity=".25" fill="#000" fill-rule="nonzero" mask="url(#l)" cx="67.837" cy="138.837" r="7.837"/><circle fill-opacity=".25" fill="#000" fill-rule="nonzero" mask="url(#l)" cx="46.837" cy="97.837" r="7.837"/><circle fill-opacity=".25" fill="#000" fill-rule="nonzero" mask="url(#l)" cx="75.999" cy="59.58" r="7.837"/><circle fill-opacity=".25" fill="#000" fill-rule="nonzero" mask="url(#l)" cx="104.837" cy="99.837" r="7.837"/></g><text font-family="BreeSerif-Regular, Bree Serif" font-size="81" letter-spacing="-1" fill="#043849"><tspan x="89.186" y="617">react-styleguidist</tspan></text></g></svg>